<svg xmlns="http://www.w3.org/2000/svg" width="40" height="40">
    <path fill="#3F894A" fill-rule="nonzero" d="M13.534 27.596c-.038-.511-.18-1.07-.745-1.586l-.003-.001a3.268 3.268 0 0 0-.07-.063l-.008-.006c-.781-.714-1.405-2.085-1.405-3.54 0-2.03.899-7.798 1.093-7.798.154 0 .157 2.782.055 5.397-.07 1.816.198 2.532.631 2.532.577 0 .67-1.827.73-3.882.049-1.692.197-4.044.315-4.044.185 0 .337 2.325.387 4.021.06 2.106.206 3.854.689 3.854.506 0 .66-.81.624-2.605-.044-2.191-.044-5.273.11-5.273.194 0 .854 2.025 1.013 7.798.04 1.455-.624 2.826-1.406 3.54-.002.002-.005.005-.008.006l-.07.063-.002.001c-.565.515-.707 1.075-.746 1.586a41.205 41.205 0 0 0-.085 3.037l4.45 4.45c.062-1.94.056-3.769-.03-5.15a13.803 13.803 0 0 0-.187-1.592c-.028-.153-.112-.293-.112-.415v-16.81c0-1.433 1.328-2.11 2.564 1.036 1.235 3.147.883 14.34.883 15.136 0 .17-.15.369-.39.565a3.255 3.255 0 0 0-.262.189c-.74.593-.847 1.278-.886 1.891a110.884 110.884 0 0 0-.186 5.59l6.132-6.133a39.115 39.115 0 0 0-.062-1.908c-.013-.208-.064-.418-.104-.64-.11-.628-.888-1.142-1.338-1.594-.875-.878-1.436-2.353-1.436-4.016 0-2.702 1.497-6.12 3.344-6.12 1.847 0 3.344 3.418 3.344 6.12 0 1.663-.561 3.138-1.436 4.016-.45.452-1.227.966-1.338 1.594-.04.222-.091.432-.104.64-.02.324-.035.69-.046 1.085L36 20 20 4 4 20l9.614 9.614a34.465 34.465 0 0 0-.08-2.018Z"/>
</svg>
