<?xml version="1.0" encoding="UTF-8"?>
<svg width="40px" height="40px" viewBox="0 0 40 40" version="1.1" xmlns="http://www.w3.org/2000/svg">
    <g id="Plugin-Icon" stroke="none" stroke-width="1" fill="none" fill-rule="evenodd">
        <g id="brunch-square" transform="translate(4.000000, 4.000000)" fill="#3F894A" fill-rule="nonzero">
            <path d="M9.53401489,23.5956983 C9.49574876,23.0847592 9.35354443,22.5253327 8.78881562,22.0104329 C8.78881562,22.0094747 8.78766572,22.0094747 8.78638806,22.0085164 C8.7643483,21.9882015 8.73988098,21.9668006 8.71649967,21.9464857 C8.71298609,21.9445692 8.71075017,21.9416306 8.7083226,21.9397141 C7.92690148,21.2261371 7.30308057,19.8549449 7.30308057,18.3995544 C7.30308057,16.3702998 8.20204706,10.6016334 8.39618856,10.6016334 C8.55021131,10.6016334 8.55327771,13.3838171 8.45106436,15.9990098 C8.38008996,17.8152773 8.64903886,18.5307708 9.08242349,18.5307708 C9.65948179,18.5307708 9.75211264,16.7044097 9.81171581,14.6490908 C9.8608421,12.9574597 10.0087959,10.6046359 10.127044,10.6046359 L10.1272996,10.6046359 C10.3119863,10.6046359 10.464412,12.9299898 10.513666,14.6260928 C10.5748024,16.7319435 10.7204564,18.4799197 11.2028396,18.4799197 C11.7093068,18.4799197 11.8633934,17.6707093 11.8273632,15.8753316 C11.7834754,13.6836856 11.783156,10.601889 11.9371787,10.601889 C12.1313202,10.601889 12.7906603,12.6266717 12.9497937,18.3996822 C12.9899124,19.8546255 12.3255895,21.226201 11.5441045,21.939778 C11.5416769,21.9416945 11.539441,21.9446331 11.5358635,21.9464857 C11.5126739,21.9668006 11.4881427,21.9882654 11.4661668,22.0085164 C11.464953,22.0094747 11.4637392,22.0094747 11.4637392,22.0104329 C10.8988826,22.5253327 10.7568061,23.0846953 10.7184761,23.5956983 C10.6574675,24.4115525 10.6299337,25.4568119 10.6329363,26.633096 L15.0824115,31.0825712 C15.1446978,29.143456 15.1386289,27.314348 15.0527696,25.9334455 C15.0207002,25.4175875 14.9558586,24.8184256 14.8656553,24.3405142 C14.8375466,24.1882802 14.7541789,24.0477368 14.7541789,23.9264862 C14.7541789,22.2531258 14.7541789,8.15221805 14.7541789,7.11673285 C14.7541789,5.68280719 16.0823776,5.00506874 17.3175621,8.15215417 C18.5527467,11.2992396 18.2008133,22.4924967 18.2008133,23.2884832 C18.2008133,23.4571992 18.0510069,23.6568985 17.8104861,23.8527649 C17.7144694,23.9147956 17.6289935,23.9778484 17.5485004,24.0418596 C16.8087951,24.6352081 16.7019183,25.3196543 16.6631411,25.9334455 C16.5707658,27.4185417 16.49615,29.4214764 16.4766656,31.5228553 L22.6092755,25.3904371 C22.6006512,24.6700245 22.5804002,24.0218002 22.5467337,23.4816665 C22.5338292,23.274365 22.4826587,23.0642527 22.4433065,22.8420025 C22.3321495,22.2139653 21.5546891,21.6995127 21.1045032,21.2477296 C20.2302595,20.3703557 19.6685971,18.8950976 19.6685971,17.2315113 C19.6685971,14.5302677 21.165959,11.1115503 23.0129543,11.1115503 C24.8598858,11.1115503 26.3574393,14.5302677 26.3574393,17.2315113 C26.3574393,18.8950976 25.795713,20.3703557 24.9214694,21.2477296 C24.4713473,21.6995127 23.6938231,22.2139653 23.5826022,22.8420025 C23.54325,23.0643166 23.4920156,23.2744289 23.479175,23.4816665 C23.4589879,23.8063217 23.4439114,24.1728204 23.4328596,24.5671085 L32,15.9999681 L16.0000319,0 L0,16.0000319 L9.61386908,25.613901 C9.60281726,24.8520921 9.57681673,24.1666876 9.53401489,23.5956983 Z"
                  id="Path"/>
        </g>
    </g>
</svg>
