<svg xmlns="http://www.w3.org/2000/svg" width="16" height="16">
    <path fill="#3F894A" fill-rule="nonzero" d="M5.814 11.438a.89.89 0 0 0-.298-.634h-.001a1.307 1.307 0 0 0-.028-.025l-.004-.003c-.312-.286-.562-.834-.562-1.416 0-.812.36-3.12.437-3.12.062 0 .063 1.114.022 2.16-.028.726.08 1.012.253 1.012.23 0 .268-.73.292-1.552.02-.677.079-1.618.126-1.618.074 0 .135.93.154 1.608.025.843.083 1.542.276 1.542.203 0 .264-.324.25-1.042-.018-.877-.018-2.11.044-2.11.078 0 .341.81.405 3.12.016.582-.25 1.13-.562 1.416l-.004.003-.028.024v.001a.89.89 0 0 0-.299.634c-.024.327-.035.745-.034 1.215l1.78 1.78c.025-.776.022-1.507-.012-2.06a5.521 5.521 0 0 0-.075-.637c-.011-.06-.044-.117-.044-.165V4.847c0-.574.531-.845 1.025.414.494 1.259.353 5.736.353 6.054 0 .068-.06.148-.156.226-.038.025-.072.05-.105.076-.295.237-.338.51-.354.756a44.354 44.354 0 0 0-.074 2.236l2.453-2.453a15.646 15.646 0 0 0-.025-.763c-.005-.083-.026-.167-.042-.256-.044-.251-.355-.457-.535-.638-.35-.35-.575-.941-.575-1.606 0-1.08.6-2.448 1.338-2.448.739 0 1.338 1.367 1.338 2.448 0 .665-.225 1.255-.574 1.606-.18.18-.491.387-.536.638-.016.089-.036.173-.041.256-.008.13-.014.276-.019.434L14.8 8.4 8.4 2 2 8.4l3.846 3.846a13.786 13.786 0 0 0-.032-.808Z"/>
</svg>
