<?xml version="1.0" encoding="UTF-8"?>
<svg width="16px" height="16px" viewBox="0 0 16 16" version="1.1" xmlns="http://www.w3.org/2000/svg">
    <g id="Generator-Icon" stroke="none" stroke-width="1" fill="none" fill-rule="evenodd">
        <g id="brunch-square" transform="translate(2.000000, 2.000000)" fill="#3F894A" fill-rule="nonzero">
            <path d="M3.81360596,9.4382793 C3.79829951,9.23390369 3.74141777,9.0101331 3.51552625,8.80417318 C3.51552625,8.80378988 3.51506629,8.80378988 3.51455522,8.80340658 C3.50573932,8.79528062 3.49595239,8.78672025 3.48659987,8.77859429 C3.48519443,8.77782769 3.48430007,8.77665223 3.48332904,8.77588563 C3.17076059,8.49045483 2.92123223,7.94197795 2.92123223,7.35982177 C2.92123223,6.54811993 3.28081882,4.24065337 3.35847542,4.24065337 C3.42008453,4.24065337 3.42131109,5.35352686 3.38042574,6.39960392 C3.35203598,7.12611092 3.45961554,7.41230832 3.6329694,7.41230832 C3.86379271,7.41230832 3.90084506,6.6817639 3.92468632,5.8596363 C3.94433684,5.18298387 4.00351838,4.24185437 4.05081761,4.24185437 L4.05091982,4.24185437 C4.12479453,4.24185437 4.18576479,5.17199594 4.20546642,5.8504371 C4.22992096,6.69277739 4.28818258,7.39196787 4.48113585,7.39196787 C4.68372272,7.39196787 4.74535738,7.06828371 4.73094529,6.35013266 C4.71339015,5.47347424 4.71326238,4.24075558 4.77487148,4.24075558 C4.85252808,4.24075558 5.1162641,5.05066868 5.17991747,7.35987287 C5.19596497,7.94185018 4.93023579,8.49048038 4.61764179,8.77591119 C4.61667076,8.77667779 4.61577639,8.77785324 4.61434541,8.77859429 C4.60506954,8.78672025 4.59525706,8.79530617 4.58646671,8.80340658 C4.5859812,8.80378988 4.58549568,8.80378988 4.58549568,8.80417318 C4.35955306,9.0101331 4.30272243,9.23387814 4.28739043,9.4382793 C4.26298699,9.764621 4.2519735,10.1827247 4.2531745,10.6532384 L6.03296461,12.4330285 C6.05787911,11.6573824 6.05545155,10.9257392 6.02110786,10.3733782 C6.00828008,10.167035 5.98234344,9.92737022 5.94626213,9.73620569 C5.93501866,9.67531208 5.90167155,9.61909473 5.90167155,9.57059449 C5.90167155,8.90125032 5.90167155,3.26088722 5.90167155,2.84669314 C5.90167155,2.27312288 6.43295103,2.0020275 6.92702485,3.26086167 C7.42109867,4.51969584 7.28032533,8.99699868 7.28032533,9.31539329 C7.28032533,9.38287966 7.22040274,9.4627594 7.12419442,9.54110594 C7.08578775,9.56591823 7.05159738,9.59113938 7.01940018,9.61674383 C6.72351806,9.85408324 6.68076732,10.1278617 6.66525644,10.3733782 C6.62830631,10.9674167 6.59846001,11.7685906 6.59066624,12.6091421 L9.04371019,10.1561748 C9.04026048,9.86800981 9.03216008,9.60872008 9.01869347,9.39266659 C9.01353169,9.309746 8.99306347,9.22570107 8.97732261,9.136801 C8.9328598,8.88558612 8.62187566,8.67980508 8.44180127,8.49909186 C8.09210382,8.14814229 7.86743886,7.55803902 7.86743886,6.8926045 C7.86743886,5.81210709 8.46638358,4.44462012 9.20518174,4.44462012 C9.94395434,4.44462012 10.5429757,5.81210709 10.5429757,6.8926045 C10.5429757,7.55803902 10.3182852,8.14814229 9.96858776,8.49909186 C9.78853893,8.67980508 9.47752923,8.88558612 9.43304087,9.136801 C9.41730001,9.22572662 9.39680623,9.30977156 9.39167001,9.39266659 C9.38359516,9.52252866 9.37756457,9.66912817 9.37314384,9.82684338 L12.8,6.39998722 L6.40001278,0 L0,6.40001278 L3.84554763,10.2455604 C3.8411269,9.94083683 3.83072669,9.66667505 3.81360596,9.4382793 Z"
                  id="Path"/>
        </g>
    </g>
</svg>
